<svg xmlns="http://www.w3.org/2000/svg" width="512" height="512" viewBox="0 0 512 512">
  <defs>
    <linearGradient id="bg" x1="0%" y1="0%" x2="100%" y2="100%">
      <stop offset="0%" style="stop-color:#1e293b"/>
      <stop offset="100%" style="stop-color:#0f172a"/>
    </linearGradient>
    <linearGradient id="shield" x1="0%" y1="0%" x2="100%" y2="100%">
      <stop offset="0%" style="stop-color:#fbbf24"/>
      <stop offset="100%" style="stop-color:#f59e0b"/>
    </linearGradient>
  </defs>
  <rect width="512" height="512" rx="64" fill="url(#bg)"/>
  <g transform="translate(128, 100)">
    <!-- Shield icon -->
    <path d="M128 0L256 48V176C256 272 192 336 128 368C64 336 0 272 0 176V48L128 0Z" 
          fill="url(#shield)" opacity="0.9"/>
    <path d="M128 32L224 68V176C224 248 176 300 128 328C80 300 32 248 32 176V68L128 32Z" 
          fill="#1e293b"/>
    <!-- Chart line inside shield -->
    <polyline points="64,200 96,160 128,180 160,120 192,140" 
              stroke="#6366f1" stroke-width="12" fill="none" stroke-linecap="round" stroke-linejoin="round"/>
    <polyline points="64,220 96,200 128,210 160,170 192,180" 
              stroke="#10b981" stroke-width="8" fill="none" stroke-linecap="round" stroke-linejoin="round" opacity="0.7"/>
  </g>
  <!-- Text -->
  <text x="256" y="440" text-anchor="middle" font-family="Arial, sans-serif" font-size="48" font-weight="bold" fill="#f8fafc">00631L</text>
</svg>
